<svg width="130" height="80" viewBox="0 0 130 80" fill="none" xmlns="http://www.w3.org/2000/svg">
<rect width="130" height="80" fill="#C4C4C4"/>
<path d="M91.8281 74.7734H97.2188V76H90.3203V64.625H91.8281V74.7734ZM107.164 70.6797C107.164 71.7943 106.977 72.7682 106.602 73.6016C106.227 74.4297 105.695 75.0625 105.008 75.5C104.32 75.9375 103.518 76.1562 102.602 76.1562C101.706 76.1562 100.911 75.9375 100.219 75.5C99.526 75.0573 98.987 74.4297 98.6016 73.6172C98.2214 72.7995 98.026 71.8542 98.0156 70.7812V69.9609C98.0156 68.8672 98.2057 67.901 98.5859 67.0625C98.9661 66.224 99.5026 65.5833 100.195 65.1406C100.893 64.6927 101.69 64.4688 102.586 64.4688C103.497 64.4688 104.299 64.6901 104.992 65.1328C105.69 65.5703 106.227 66.2083 106.602 67.0469C106.977 67.8802 107.164 68.8516 107.164 69.9609V70.6797ZM105.672 69.9453C105.672 68.5964 105.401 67.5625 104.859 66.8438C104.318 66.1198 103.56 65.7578 102.586 65.7578C101.638 65.7578 100.891 66.1198 100.344 66.8438C99.8021 67.5625 99.5234 68.5625 99.5078 69.8438V70.6797C99.5078 71.987 99.7812 73.0156 100.328 73.7656C100.88 74.5104 101.638 74.8828 102.602 74.8828C103.57 74.8828 104.32 74.5312 104.852 73.8281C105.383 73.1198 105.656 72.1068 105.672 70.7891V69.9453ZM117.812 74.5078C117.427 75.0599 116.888 75.474 116.195 75.75C115.508 76.0208 114.706 76.1562 113.789 76.1562C112.862 76.1562 112.039 75.9401 111.32 75.5078C110.602 75.0703 110.044 74.4505 109.648 73.6484C109.258 72.8464 109.057 71.9167 109.047 70.8594V69.8672C109.047 68.1536 109.445 66.8255 110.242 65.8828C111.044 64.9401 112.169 64.4688 113.617 64.4688C114.805 64.4688 115.76 64.7734 116.484 65.3828C117.208 65.987 117.651 66.8464 117.812 67.9609H116.312C116.031 66.4557 115.135 65.7031 113.625 65.7031C112.62 65.7031 111.857 66.0573 111.336 66.7656C110.82 67.4688 110.56 68.4896 110.555 69.8281V70.7578C110.555 72.0339 110.846 73.0495 111.43 73.8047C112.013 74.5547 112.802 74.9297 113.797 74.9297C114.359 74.9297 114.852 74.8672 115.273 74.7422C115.695 74.6172 116.044 74.4062 116.32 74.1094V71.5547H113.688V70.3359H117.812V74.5078ZM129.07 70.6797C129.07 71.7943 128.883 72.7682 128.508 73.6016C128.133 74.4297 127.602 75.0625 126.914 75.5C126.227 75.9375 125.424 76.1562 124.508 76.1562C123.612 76.1562 122.818 75.9375 122.125 75.5C121.432 75.0573 120.893 74.4297 120.508 73.6172C120.128 72.7995 119.932 71.8542 119.922 70.7812V69.9609C119.922 68.8672 120.112 67.901 120.492 67.0625C120.872 66.224 121.409 65.5833 122.102 65.1406C122.799 64.6927 123.596 64.4688 124.492 64.4688C125.404 64.4688 126.206 64.6901 126.898 65.1328C127.596 65.5703 128.133 66.2083 128.508 67.0469C128.883 67.8802 129.07 68.8516 129.07 69.9609V70.6797ZM127.578 69.9453C127.578 68.5964 127.307 67.5625 126.766 66.8438C126.224 66.1198 125.466 65.7578 124.492 65.7578C123.544 65.7578 122.797 66.1198 122.25 66.8438C121.708 67.5625 121.43 68.5625 121.414 69.8438V70.6797C121.414 71.987 121.688 73.0156 122.234 73.7656C122.786 74.5104 123.544 74.8828 124.508 74.8828C125.477 74.8828 126.227 74.5312 126.758 73.8281C127.289 73.1198 127.562 72.1068 127.578 70.7891V69.9453Z" fill="white"/>
</svg>
