<svg width="300" height="400" viewBox="0 0 300 400" fill="none" xmlns="http://www.w3.org/2000/svg">
<rect width="300" height="400" fill="#C4C4C4"/>
<path d="M246.867 391.547V396H245.367V384.625H249.562C250.807 384.625 251.781 384.943 252.484 385.578C253.193 386.214 253.547 387.055 253.547 388.102C253.547 389.206 253.201 390.057 252.508 390.656C251.82 391.25 250.833 391.547 249.547 391.547H246.867ZM246.867 390.32H249.562C250.365 390.32 250.979 390.133 251.406 389.758C251.833 389.378 252.047 388.831 252.047 388.117C252.047 387.44 251.833 386.898 251.406 386.492C250.979 386.086 250.393 385.875 249.648 385.859H246.867V390.32ZM259.32 388.844C259.102 388.807 258.865 388.789 258.609 388.789C257.661 388.789 257.018 389.193 256.68 390V396H255.234V387.547H256.641L256.664 388.523C257.138 387.768 257.81 387.391 258.68 387.391C258.961 387.391 259.174 387.427 259.32 387.5V388.844ZM260.117 391.695C260.117 390.867 260.279 390.122 260.602 389.461C260.93 388.799 261.383 388.289 261.961 387.93C262.544 387.57 263.208 387.391 263.953 387.391C265.104 387.391 266.034 387.789 266.742 388.586C267.456 389.383 267.812 390.443 267.812 391.766V391.867C267.812 392.69 267.654 393.43 267.336 394.086C267.023 394.737 266.573 395.245 265.984 395.609C265.401 395.974 264.729 396.156 263.969 396.156C262.823 396.156 261.893 395.758 261.18 394.961C260.471 394.164 260.117 393.109 260.117 391.797V391.695ZM261.57 391.867C261.57 392.805 261.786 393.557 262.219 394.125C262.656 394.693 263.24 394.977 263.969 394.977C264.703 394.977 265.286 394.69 265.719 394.117C266.151 393.539 266.367 392.732 266.367 391.695C266.367 390.768 266.146 390.018 265.703 389.445C265.266 388.867 264.682 388.578 263.953 388.578C263.24 388.578 262.664 388.862 262.227 389.43C261.789 389.997 261.57 390.81 261.57 391.867ZM269.273 391.703C269.273 390.406 269.581 389.365 270.195 388.578C270.81 387.786 271.615 387.391 272.609 387.391C273.599 387.391 274.383 387.729 274.961 388.406V384H276.406V396H275.078L275.008 395.094C274.43 395.802 273.625 396.156 272.594 396.156C271.615 396.156 270.815 395.755 270.195 394.953C269.581 394.151 269.273 393.104 269.273 391.812V391.703ZM270.719 391.867C270.719 392.826 270.917 393.576 271.312 394.117C271.708 394.659 272.255 394.93 272.953 394.93C273.87 394.93 274.539 394.518 274.961 393.695V389.812C274.529 389.016 273.865 388.617 272.969 388.617C272.26 388.617 271.708 388.891 271.312 389.438C270.917 389.984 270.719 390.794 270.719 391.867ZM283.875 395.164C283.312 395.826 282.487 396.156 281.398 396.156C280.497 396.156 279.81 395.896 279.336 395.375C278.867 394.849 278.63 394.073 278.625 393.047V387.547H280.07V393.008C280.07 394.289 280.591 394.93 281.633 394.93C282.737 394.93 283.471 394.518 283.836 393.695V387.547H285.281V396H283.906L283.875 395.164ZM290.875 394.977C291.391 394.977 291.841 394.82 292.227 394.508C292.612 394.195 292.826 393.805 292.867 393.336H294.234C294.208 393.82 294.042 394.281 293.734 394.719C293.427 395.156 293.016 395.505 292.5 395.766C291.99 396.026 291.448 396.156 290.875 396.156C289.724 396.156 288.807 395.773 288.125 395.008C287.448 394.237 287.109 393.185 287.109 391.852V391.609C287.109 390.786 287.26 390.055 287.562 389.414C287.865 388.773 288.297 388.276 288.859 387.922C289.427 387.568 290.096 387.391 290.867 387.391C291.815 387.391 292.602 387.674 293.227 388.242C293.857 388.81 294.193 389.547 294.234 390.453H292.867C292.826 389.906 292.617 389.458 292.242 389.109C291.872 388.755 291.414 388.578 290.867 388.578C290.133 388.578 289.562 388.844 289.156 389.375C288.755 389.901 288.555 390.664 288.555 391.664V391.938C288.555 392.911 288.755 393.661 289.156 394.188C289.557 394.714 290.13 394.977 290.875 394.977ZM297.82 385.5V387.547H299.398V388.664H297.82V393.906C297.82 394.245 297.891 394.5 298.031 394.672C298.172 394.839 298.411 394.922 298.75 394.922C298.917 394.922 299.146 394.891 299.438 394.828V396C299.057 396.104 298.688 396.156 298.328 396.156C297.682 396.156 297.195 395.961 296.867 395.57C296.539 395.18 296.375 394.625 296.375 393.906V388.664H294.836V387.547H296.375V385.5H297.82Z" fill="white"/>
</svg>
