<svg xmlns="http://www.w3.org/2000/svg" style="display: none;">
  <symbol id="svg-Heart_16" viewBox="0 0 16 16">
    <path d="M14.7578 2.24219C15.0339 2.51823 15.263 2.82031 15.4453 3.14844C15.6328 3.47656 15.7708 3.81771 15.8594 4.17187C15.9531 4.52604 16 4.88802 16 5.25781C16 5.6224 15.9531 5.98177 15.8594 6.33594C15.7708 6.6849 15.6328 7.02344 15.4453 7.35156C15.263 7.67969 15.0339 7.98177 14.7578 8.25781L8 15.0078L1.24219 8.25781C0.966146 7.98177 0.734375 7.67969 0.546875 7.35156C0.364583 7.02344 0.226563 6.6849 0.132813 6.33594C0.0442708 5.98177 0 5.6224 0 5.25781C0 4.88802 0.0442708 4.52604 0.132813 4.17188C0.226563 3.81771 0.364583 3.47656 0.546875 3.14844C0.734375 2.82031 0.966146 2.51823 1.24219 2.24219C1.64844 1.84115 2.10938 1.53385 2.625 1.32031C3.14062 1.10677 3.68229 1 4.25 1C4.81771 1 5.35938 1.10677 5.875 1.32031C6.39062 1.53385 6.85156 1.84115 7.25781 2.24219L8 2.99219L8.74219 2.24219C9.14844 1.84115 9.60938 1.53385 10.125 1.32031C10.6406 1.10677 11.1823 1 11.75 1C12.3177 1 12.8594 1.10677 13.375 1.32031C13.8906 1.53385 14.3516 1.84115 14.7578 2.24219Z" fill="var(--fill)"/>
    <path d="M11.75 1C12.3385 1 12.8906 1.11198 13.4062 1.33594C13.9219 1.5599 14.3724 1.86458 14.7578 2.25C15.1432 2.63021 15.4453 3.08073 15.6641 3.60156C15.888 4.11719 16 4.66667 16 5.25C16 5.81771 15.8906 6.36198 15.6719 6.88281C15.4583 7.40365 15.1536 7.86198 14.7578 8.25781L8 15.0078L1.24219 8.25781C0.846354 7.86198 0.539063 7.40365 0.320313 6.88281C0.106771 6.36198 0 5.81771 0 5.25C0 4.66667 0.109375 4.11719 0.328125 3.60156C0.552083 3.08073 0.856771 2.63021 1.24219 2.25C1.6276 1.86458 2.07812 1.5599 2.59375 1.33594C3.10938 1.11198 3.66146 1 4.25 1C4.68229 1 5.06771 1.04948 5.40625 1.14844C5.74479 1.2474 6.05729 1.38542 6.34375 1.5625C6.63542 1.73437 6.91146 1.94271 7.17188 2.1875C7.4375 2.43229 7.71354 2.70052 8 2.99219C8.28646 2.70052 8.5599 2.43229 8.82031 2.1875C9.08594 1.94271 9.36198 1.73437 9.64844 1.5625C9.9401 1.38542 10.2552 1.2474 10.5938 1.14844C10.9323 1.04948 11.3177 1 11.75 1ZM14.0469 7.54687C14.3542 7.23958 14.5885 6.88802 14.75 6.49219C14.9115 6.09635 14.9922 5.68229 14.9922 5.25C14.9922 4.79687 14.9089 4.375 14.7422 3.98437C14.5755 3.58854 14.3438 3.2474 14.0469 2.96094C13.7552 2.66927 13.4115 2.44271 13.0156 2.28125C12.625 2.11458 12.2031 2.03125 11.75 2.03125C11.3125 2.03125 10.9245 2.10156 10.5859 2.24219C10.2474 2.3776 9.9349 2.55729 9.64844 2.78125C9.36198 3.00521 9.08594 3.26042 8.82031 3.54687C8.5599 3.82812 8.28646 4.11458 8 4.40625C7.71875 4.125 7.44531 3.84115 7.17969 3.55469C6.91406 3.26823 6.63542 3.01042 6.34375 2.78125C6.05729 2.55208 5.74219 2.36458 5.39844 2.21875C5.0599 2.07292 4.67708 2 4.25 2C3.80208 2 3.38021 2.08594 2.98438 2.25781C2.58854 2.42448 2.24219 2.65625 1.94531 2.95312C1.65365 3.24479 1.42188 3.58854 1.25 3.98438C1.08333 4.38021 1 4.80208 1 5.25C1 5.68229 1.08073 6.09635 1.24219 6.49219C1.40885 6.88802 1.64583 7.23958 1.95313 7.54688L8 13.5937L14.0469 7.54687Z" fill="var(--stroke)"/>
  </symbol>
</svg>


